<svg xmlns="http://www.w3.org/2000/svg" viewBox="0 0 200 71"><path fill="#2DA6B0" fill-rule="evenodd" d="M74.557 30.733h5.649c1.753 0 3.15-.234 4.188-.702 1.039-.468 1.834-1.139 2.386-2.013.552-.873.926-1.95 1.12-3.229.195-1.279.293-2.761.293-4.446 0-1.685-.098-3.167-.293-4.446-.194-1.28-.6-2.371-1.217-3.276-.617-.905-1.477-1.575-2.581-2.012-1.104-.437-2.565-.656-4.383-.656h-5.162v20.78zM64.622.585h15.974c11.687 0 17.531 6.799 17.531 20.395 0 4.034-.633 7.498-1.899 10.393-1.266 2.895-3.49 5.22-6.672 6.977l10.714 31.715H89.751l-9.41-30.18h-5.784v30.18h-9.935V.585zm41.492 0h14.902c2.727 0 5.13.358 7.207 1.074 2.078.716 3.961 1.984 5.65 3.806 1.688 1.821 2.856 3.952 3.506 6.391.65 2.44.974 5.742.974 9.905 0 3.058-.245 5.246-.603 7.426-.357 2.18-1.51 5.97-6.038 8.543-2.832 1.609-6.898 2.188-10.599 2.188h-5.064v30.147h-9.935V.585zm9.935 30.148h4.772c2.013 0 3.571-.258 4.675-.773 1.104-.515 1.916-1.216 2.435-2.104.52-.887.828-1.96.925-3.22.098-1.259.147-2.661.147-4.207a54.4 54.4 0 0 0-.147-4.079c-.097-1.288-.39-2.404-.876-3.348-.487-.945-1.25-1.689-2.289-2.233-1.039-.544-2.532-.816-4.48-.816h-5.162v20.78zm61.263 23.816c0 2.147-.406 4.196-1.217 6.148a16.118 16.118 0 0 1-3.36 5.123 16.612 16.612 0 0 1-5.017 3.513c-1.915.878-3.977 1.317-6.184 1.317-1.883 0-3.799-.26-5.747-.78a13.936 13.936 0 0 1-5.26-2.684c-1.558-1.268-2.84-2.944-3.847-5.025-1.006-2.082-1.51-4.717-1.51-7.905V16.004c0-2.277.39-4.392 1.17-6.343.779-1.952 1.882-3.643 3.311-5.075 1.428-1.43 3.133-2.553 5.113-3.366C156.744.407 158.936 0 161.34 0c2.272 0 4.383.407 6.33 1.22 1.949.813 3.637 1.951 5.065 3.415 1.429 1.464 2.549 3.22 3.36 5.27.812 2.049 1.218 4.277 1.218 6.684v3.903h-9.935v-3.317c0-1.952-.551-3.643-1.655-5.075-1.104-1.43-2.598-2.147-4.48-2.147-2.468 0-4.108.765-4.92 2.294-.81 1.529-1.217 3.464-1.217 5.806v35.52c0 2.017.439 3.708 1.315 5.075.877 1.366 2.451 2.049 4.724 2.049.65 0 1.347-.114 2.094-.342a5.745 5.745 0 0 0 2.045-1.122c.617-.52 1.12-1.236 1.51-2.147.39-.91.584-2.049.584-3.415v-3.416h9.935v4.294zm19.465-19.312a4.586 4.586 0 0 0-4.58-4.592h-24.81v9.184h20.23v10.244H184.5l7.75 10.951 7.75-10.95h-3.223V35.236zm-174.23 4.68v13.754c0 2.862.486 5.35 1.46 7.465.974 2.114 2.256 3.87 3.847 5.27a16.577 16.577 0 0 0 5.357 3.17c1.98.717 3.977 1.074 5.99 1.074 2.013 0 4.01-.357 5.99-1.073a16.577 16.577 0 0 0 5.357-3.172c1.591-1.398 2.873-3.155 3.847-5.27.974-2.113 1.461-4.602 1.461-7.464V30.752l-17.801-.027-.023 9.19h7.89v13.756c0 2.407-.666 4.18-1.997 5.318-1.331 1.139-2.906 1.708-4.724 1.708s-3.392-.57-4.724-1.708c-1.33-1.138-1.996-2.911-1.996-5.318V16.979c0-2.407.665-4.18 1.996-5.318 1.332-1.138 2.906-1.708 4.724-1.708s3.393.57 4.724 1.708c1.331 1.139 1.997 2.911 1.997 5.318v3.513h9.934V16.98c0-2.797-.487-5.269-1.46-7.416-.975-2.147-2.257-3.92-3.848-5.318a16.577 16.577 0 0 0-5.357-3.172C43.211.358 41.214 0 39.201 0c-2.013 0-4.01.358-5.99 1.073a16.577 16.577 0 0 0-5.357 3.172c-1.59 1.399-2.873 3.171-3.847 5.318-.974 2.147-1.46 4.62-1.46 7.416v13.754H12.382V20.489H15.5L7.75 9.538 0 20.488h3.223v14.837a4.586 4.586 0 0 0 4.58 4.592h14.743z"/></svg>